<svg width="95" height="95" viewBox="0 0 95 95" fill="none" xmlns="http://www.w3.org/2000/svg">
<path d="M75.1287 79.0828H19.7707C18.722 79.0828 17.7162 79.4994 16.9747 80.2409C16.2332 80.9824 15.8166 81.9882 15.8166 83.0369C15.8166 84.0856 16.2332 85.0914 16.9747 85.8329C17.7162 86.5745 18.722 86.991 19.7707 86.991H75.1287C76.1774 86.991 77.1831 86.5745 77.9247 85.8329C78.6662 85.0914 79.0828 84.0856 79.0828 83.0369C79.0828 81.9882 78.6662 80.9824 77.9247 80.2409C77.1831 79.4994 76.1774 79.0828 75.1287 79.0828Z" fill="#FDAEFF"/>
<path d="M19.7707 71.1745H20.1266L36.6153 69.6719C38.4216 69.492 40.1109 68.6961 41.3999 67.418L76.9871 31.8308C78.3684 30.3716 79.1148 28.4243 79.063 26.4157C79.0111 24.4071 78.1651 22.501 76.7103 21.115L65.876 10.2807C64.4619 8.95248 62.609 8.19037 60.6697 8.13934C58.7303 8.0883 56.8399 8.7519 55.358 10.0039L19.7707 45.5912C18.4926 46.8801 17.6968 48.5694 17.5168 50.3757L15.8166 66.8644C15.7633 67.4436 15.8384 68.0274 16.0367 68.5742C16.2349 69.1209 16.5512 69.6173 16.9633 70.0278C17.3327 70.3942 17.7709 70.6842 18.2527 70.881C18.7344 71.0777 19.2503 71.1775 19.7707 71.1745V71.1745ZM60.3797 15.8165L71.1745 26.6113L63.2663 34.3219L52.6692 23.7248L60.3797 15.8165Z" fill="#FDAEFF"/>
</svg>
