<svg width="54" height="51" viewBox="0 0 54 51" fill="none" xmlns="http://www.w3.org/2000/svg">
<path d="M38.3067 50.7375C37.5994 50.7375 36.9211 50.4706 36.421 49.9955C35.9209 49.5203 35.64 48.8759 35.64 48.204V41.6168C35.7228 40.8591 35.6375 40.0933 35.3895 39.3689C35.1414 38.6445 34.7362 37.9776 34.2 37.4112C33.868 37.0691 33.6416 36.6468 33.5456 36.1905C33.4495 35.7342 33.4876 35.2616 33.6557 34.8246C33.8237 34.3875 34.1152 34.0028 34.4982 33.7128C34.8811 33.4227 35.3408 33.2385 35.8267 33.1802C42.3333 32.4455 48.3333 30.4693 48.3333 19.7525C48.3354 17.7512 47.7137 15.7942 46.5467 14.1281C45.4697 12.5944 45.0766 10.7176 45.4533 8.90905C45.6937 7.72924 45.6937 6.51659 45.4533 5.33678C43.4565 5.97821 41.5764 6.90978 39.88 8.09832C39.5592 8.31472 39.1921 8.46102 38.8048 8.52672C38.4175 8.59242 38.0197 8.5759 37.64 8.47835C32.8275 7.1864 27.7324 7.1864 22.92 8.47835C22.5402 8.5759 22.1425 8.59242 21.7552 8.52672C21.3679 8.46102 21.0007 8.31472 20.68 8.09832C18.9732 6.89601 17.0731 5.96349 15.0533 5.33678C14.7997 6.51535 14.7997 7.73048 15.0533 8.90905C15.4029 10.7404 14.9919 12.6292 13.9067 14.1788C12.7447 15.8565 12.1237 17.8202 12.12 19.8285C12.12 29.6839 17.1333 32.3188 24.6533 33.2309C25.1454 33.2889 25.6107 33.4761 25.997 33.7715C26.3832 34.0668 26.6752 34.4587 26.84 34.903C26.995 35.3341 27.0249 35.797 26.9263 36.2428C26.8278 36.6887 26.6045 37.1011 26.28 37.4365C25.7613 37.9633 25.3632 38.5864 25.1108 39.2667C24.8583 39.9469 24.7571 40.6695 24.8133 41.3888V48.204C24.8133 48.8759 24.5324 49.5203 24.0323 49.9955C23.5322 50.4706 22.8539 50.7375 22.1467 50.7375C21.4394 50.7375 20.7611 50.4706 20.261 49.9955C19.7609 49.5203 19.48 48.8759 19.48 48.204V46.7599C16.8596 47.0462 14.2054 46.7126 11.7535 45.7888C9.30169 44.865 7.12825 43.3796 5.42666 41.4648C4.552 40.5438 3.50261 39.7874 2.33333 39.2353C1.99364 39.1521 1.67452 39.0062 1.3942 38.8059C1.11387 38.6055 0.877827 38.3547 0.699538 38.0677C0.52125 37.7807 0.40421 37.4631 0.355102 37.1331C0.305993 36.8031 0.325778 36.4672 0.413326 36.1444C0.500874 35.8217 0.654471 35.5185 0.865347 35.2522C1.07622 34.9859 1.34025 34.7616 1.64235 34.5922C1.94445 34.4228 2.27871 34.3116 2.62604 34.265C2.97337 34.2183 3.32697 34.2371 3.66666 34.3203C5.71799 35.0303 7.55093 36.2144 8.99999 37.7659C11.6667 40.2994 14.3333 42.5289 19.4 41.6168C19.3109 40.2566 19.5198 38.8935 20.0133 37.6139C14.52 36.2964 6.67999 32.5468 6.67999 19.8792C6.67296 16.8786 7.60082 13.9431 9.34666 11.4426C9.67093 10.981 9.79512 10.4183 9.69333 9.87179C9.15447 7.13704 9.46009 4.31257 10.5733 1.73918C10.7246 1.39605 10.9535 1.08878 11.2439 0.839191C11.5342 0.589606 11.8789 0.403833 12.2533 0.295069C13.16 0.0417163 16.4133 -0.464988 22.5733 3.3353C27.5599 2.19522 32.7601 2.19522 37.7467 3.3353C43.9067 -0.464988 47.16 0.0163811 48.04 0.295069C48.4144 0.403833 48.7591 0.589606 49.0494 0.839191C49.3398 1.08878 49.5687 1.39605 49.72 1.73918C50.8354 4.32092 51.141 7.15409 50.6 9.89712C50.5454 10.1443 50.5433 10.3993 50.5936 10.6472C50.644 10.8952 50.7459 11.1311 50.8933 11.3412C52.6442 13.8489 53.5723 16.794 53.56 19.8032C53.56 32.6482 45.7733 36.3724 40.2267 37.5379C40.7153 38.8974 40.9147 40.3355 40.8133 41.7688V48.204C40.8145 48.8504 40.5557 49.4728 40.0897 49.9438C39.6237 50.4148 38.9858 50.6987 38.3067 50.7375V50.7375Z" fill="#FDAEFF"/>
</svg>
