<svg width="106" height="106" viewBox="0 0 106 106" fill="none" xmlns="http://www.w3.org/2000/svg">
<path d="M87.7492 48.1416H17.2873C14.9911 48.1416 13.1296 50.0031 13.1296 52.2993V52.7369C13.1296 55.0332 14.9911 56.8946 17.2873 56.8946H87.7492C90.0454 56.8946 91.9069 55.0332 91.9069 52.7369V52.2993C91.9069 50.0031 90.0454 48.1416 87.7492 48.1416Z" fill="#9B80FF"/>
<path d="M87.7492 70.0242H17.2873C14.9911 70.0242 13.1296 71.8856 13.1296 74.1819V74.6195C13.1296 76.9157 14.9911 78.7772 17.2873 78.7772H87.7492C90.0454 78.7772 91.9069 76.9157 91.9069 74.6195V74.1819C91.9069 71.8856 90.0454 70.0242 87.7492 70.0242Z" fill="#9B80FF"/>
<path d="M87.7492 26.259H17.2873C14.9911 26.259 13.1296 28.1205 13.1296 30.4167V30.8544C13.1296 33.1506 14.9911 35.0121 17.2873 35.0121H87.7492C90.0454 35.0121 91.9069 33.1506 91.9069 30.8544V30.4167C91.9069 28.1205 90.0454 26.259 87.7492 26.259Z" fill="#9B80FF"/>
</svg>
