<svg width="95" height="95" viewBox="0 0 95 95" fill="none" xmlns="http://www.w3.org/2000/svg">
<path d="M75.1287 11.8624H19.7707C16.6246 11.8624 13.6074 13.1122 11.3827 15.3369C9.15808 17.5615 7.90829 20.5787 7.90829 23.7248V43.4956H86.9911V23.7248C86.9911 20.5787 85.7413 17.5615 83.5167 15.3369C81.2921 13.1122 78.2748 11.8624 75.1287 11.8624Z" fill="#FDAEFF"/>
<path d="M7.90829 55.3579C7.90829 58.5041 9.15808 61.5213 11.3827 63.746C13.6074 65.9706 16.6246 67.2204 19.7707 67.2204H43.4956V75.1287H27.679C26.6303 75.1287 25.6245 75.5452 24.883 76.2868C24.1415 77.0283 23.7249 78.0341 23.7249 79.0828C23.7249 80.1315 24.1415 81.1373 24.883 81.8788C25.6245 82.6203 26.6303 83.0369 27.679 83.0369H67.2204C68.2691 83.0369 69.2749 82.6203 70.0164 81.8788C70.758 81.1373 71.1745 80.1315 71.1745 79.0828C71.1745 78.0341 70.758 77.0283 70.0164 76.2868C69.2749 75.5452 68.2691 75.1287 67.2204 75.1287H51.4038V67.2204H75.1287C78.2748 67.2204 81.2921 65.9706 83.5167 63.746C85.7413 61.5213 86.9911 58.5041 86.9911 55.3579V51.4038H7.90829V55.3579Z" fill="#FDAEFF"/>
</svg>
