<svg width="64" height="61" viewBox="0 0 64 61" fill="none" xmlns="http://www.w3.org/2000/svg">
<path d="M43.3067 55.7375C42.5994 55.7375 41.9211 55.4706 41.421 54.9955C40.9209 54.5203 40.64 53.8759 40.64 53.204V46.6168C40.7228 45.8591 40.6375 45.0933 40.3895 44.3689C40.1414 43.6445 39.7362 42.9776 39.2 42.4112C38.868 42.0691 38.6416 41.6468 38.5456 41.1905C38.4495 40.7342 38.4876 40.2616 38.6557 39.8246C38.8237 39.3875 39.1152 39.0028 39.4982 38.7128C39.8811 38.4227 40.3408 38.2385 40.8267 38.1802C47.3333 37.4455 53.3333 35.4693 53.3333 24.7525C53.3354 22.7512 52.7137 20.7942 51.5467 19.1281C50.4697 17.5944 50.0766 15.7176 50.4533 13.909C50.6937 12.7292 50.6937 11.5166 50.4533 10.3368C48.4565 10.9782 46.5764 11.9098 44.88 13.0983C44.5592 13.3147 44.1921 13.461 43.8048 13.5267C43.4175 13.5924 43.0197 13.5759 42.64 13.4784C37.8275 12.1864 32.7324 12.1864 27.92 13.4784C27.5402 13.5759 27.1425 13.5924 26.7552 13.5267C26.3679 13.461 26.0007 13.3147 25.68 13.0983C23.9732 11.896 22.0731 10.9635 20.0533 10.3368C19.7997 11.5153 19.7997 12.7305 20.0533 13.909C20.4029 15.7404 19.9919 17.6292 18.9067 19.1788C17.7447 20.8565 17.1237 22.8202 17.12 24.8285C17.12 34.6839 22.1333 37.3188 29.6533 38.2309C30.1454 38.2889 30.6107 38.4761 30.997 38.7715C31.3832 39.0668 31.6752 39.4587 31.84 39.903C31.995 40.3341 32.0249 40.797 31.9263 41.2428C31.8278 41.6887 31.6045 42.1011 31.28 42.4365C30.7613 42.9633 30.3632 43.5864 30.1108 44.2667C29.8583 44.9469 29.7571 45.6695 29.8133 46.3888V53.204C29.8133 53.8759 29.5324 54.5203 29.0323 54.9955C28.5322 55.4706 27.8539 55.7375 27.1467 55.7375C26.4394 55.7375 25.7611 55.4706 25.261 54.9955C24.7609 54.5203 24.48 53.8759 24.48 53.204V51.7599C21.8596 52.0462 19.2054 51.7126 16.7535 50.7888C14.3017 49.865 12.1282 48.3796 10.4267 46.4648C9.552 45.5438 8.50261 44.7874 7.33333 44.2353C6.99364 44.1521 6.67452 44.0062 6.3942 43.8059C6.11387 43.6055 5.87783 43.3547 5.69954 43.0677C5.52125 42.7807 5.40421 42.4631 5.3551 42.1331C5.30599 41.8031 5.32578 41.4672 5.41333 41.1444C5.50087 40.8217 5.65447 40.5185 5.86535 40.2522C6.07622 39.9859 6.34025 39.7616 6.64235 39.5922C6.94445 39.4228 7.27871 39.3116 7.62604 39.265C7.97337 39.2183 8.32697 39.2371 8.66666 39.3203C10.718 40.0303 12.5509 41.2144 14 42.7659C16.6667 45.2994 19.3333 47.5289 24.4 46.6168C24.3109 45.2566 24.5198 43.8935 25.0133 42.6139C19.52 41.2964 11.68 37.5468 11.68 24.8792C11.673 21.8786 12.6008 18.9431 14.3467 16.4426C14.6709 15.981 14.7951 15.4183 14.6933 14.8718C14.1545 12.137 14.4601 9.31257 15.5733 6.73918C15.7246 6.39605 15.9535 6.08878 16.2439 5.83919C16.5342 5.58961 16.8789 5.40383 17.2533 5.29507C18.16 5.04172 21.4133 4.53501 27.5733 8.3353C32.5599 7.19522 37.7601 7.19522 42.7467 8.3353C48.9067 4.53501 52.16 5.01638 53.04 5.29507C53.4144 5.40383 53.7591 5.58961 54.0494 5.83919C54.3398 6.08878 54.5687 6.39605 54.72 6.73918C55.8354 9.32092 56.141 12.1541 55.6 14.8971C55.5454 15.1443 55.5433 15.3993 55.5936 15.6472C55.644 15.8952 55.7459 16.1311 55.8933 16.3412C57.6442 18.8489 58.5723 21.794 58.56 24.8032C58.56 37.6482 50.7733 41.3724 45.2267 42.5379C45.7153 43.8974 45.9147 45.3355 45.8133 46.7688V53.204C45.8145 53.8504 45.5557 54.4728 45.0897 54.9438C44.6237 55.4148 43.9858 55.6987 43.3067 55.7375V55.7375Z" fill="#9B80FF"/>
</svg>
