<svg width="64" height="61" viewBox="0 0 64 61" fill="none" xmlns="http://www.w3.org/2000/svg">
<path d="M43.3067 55.7375C42.5995 55.7375 41.9212 55.4706 41.4211 54.9955C40.921 54.5203 40.64 53.8759 40.64 53.204V46.6168C40.7229 45.8591 40.6376 45.0933 40.3895 44.3689C40.1415 43.6445 39.7363 42.9776 39.2001 42.4112C38.8681 42.0691 38.6416 41.6468 38.5456 41.1905C38.4496 40.7342 38.4877 40.2616 38.6557 39.8246C38.8238 39.3875 39.1153 39.0028 39.4982 38.7128C39.8812 38.4227 40.3408 38.2385 40.8267 38.1802C47.3334 37.4455 53.3334 35.4693 53.3334 24.7525C53.3354 22.7512 52.7138 20.7942 51.5467 19.1281C50.4698 17.5944 50.0766 15.7176 50.4534 13.909C50.6937 12.7292 50.6937 11.5166 50.4534 10.3368C48.4566 10.9782 46.5765 11.9098 44.8801 13.0983C44.5593 13.3147 44.1921 13.461 43.8049 13.5267C43.4176 13.5924 43.0198 13.5759 42.64 13.4784C37.8276 12.1864 32.7325 12.1864 27.9201 13.4784C27.5403 13.5759 27.1425 13.5924 26.7552 13.5267C26.368 13.461 26.0008 13.3147 25.6801 13.0983C23.9732 11.896 22.0732 10.9635 20.0534 10.3368C19.7998 11.5153 19.7998 12.7305 20.0534 13.909C20.4029 15.7404 19.992 17.6292 18.9067 19.1788C17.7448 20.8565 17.1238 22.8202 17.1201 24.8285C17.1201 34.6839 22.1334 37.3188 29.6534 38.2309C30.1455 38.2889 30.6108 38.4761 30.997 38.7715C31.3833 39.0668 31.6752 39.4587 31.8401 39.903C31.9951 40.3341 32.0249 40.797 31.9264 41.2428C31.8278 41.6887 31.6045 42.1011 31.2801 42.4365C30.7614 42.9633 30.3633 43.5864 30.1108 44.2667C29.8584 44.9469 29.7571 45.6695 29.8134 46.3888V53.204C29.8134 53.8759 29.5324 54.5203 29.0323 54.9955C28.5322 55.4706 27.854 55.7375 27.1467 55.7375C26.4395 55.7375 25.7612 55.4706 25.2611 54.9955C24.761 54.5203 24.4801 53.8759 24.4801 53.204V51.7599C21.8597 52.0462 19.2055 51.7126 16.7536 50.7888C14.3017 49.865 12.1283 48.3796 10.4267 46.4648C9.55206 45.5438 8.50267 44.7874 7.33339 44.2353C6.9937 44.1521 6.67459 44.0062 6.39426 43.8059C6.11393 43.6055 5.87789 43.3547 5.6996 43.0677C5.52131 42.7807 5.40427 42.4631 5.35516 42.1331C5.30605 41.8031 5.32584 41.4672 5.41339 41.1444C5.50094 40.8217 5.65453 40.5185 5.86541 40.2522C6.07628 39.9859 6.34031 39.7616 6.64241 39.5922C6.94451 39.4228 7.27877 39.3116 7.6261 39.265C7.97343 39.2183 8.32703 39.2371 8.66672 39.3203C10.7181 40.0303 12.551 41.2144 14.0001 42.7659C16.6667 45.2994 19.3334 47.5289 24.4001 46.6168C24.311 45.2566 24.5198 43.8935 25.0134 42.6139C19.5201 41.2964 11.6801 37.5468 11.6801 24.8792C11.673 21.8786 12.6009 18.9431 14.3467 16.4426C14.671 15.981 14.7952 15.4183 14.6934 14.8718C14.1545 12.137 14.4602 9.31257 15.5734 6.73918C15.7246 6.39605 15.9536 6.08878 16.2439 5.83919C16.5343 5.58961 16.8789 5.40383 17.2534 5.29507C18.1601 5.04172 21.4134 4.53501 27.5734 8.3353C32.56 7.19522 37.7601 7.19522 42.7467 8.3353C48.9067 4.53501 52.1601 5.01638 53.0401 5.29507C53.4145 5.40383 53.7591 5.58961 54.0495 5.83919C54.3399 6.08878 54.5688 6.39605 54.7201 6.73918C55.8355 9.32092 56.1411 12.1541 55.6001 14.8971C55.5455 15.1443 55.5433 15.3993 55.5937 15.6472C55.6441 15.8952 55.7459 16.1311 55.8934 16.3412C57.6443 18.8489 58.5724 21.794 58.5601 24.8032C58.5601 37.6482 50.7734 41.3724 45.2267 42.5379C45.7153 43.8974 45.9148 45.3355 45.8134 46.7688V53.204C45.8146 53.8504 45.5557 54.4728 45.0897 54.9438C44.6237 55.4148 43.9859 55.6987 43.3067 55.7375Z" fill="white"/>
</svg>
