<svg width="95" height="95" viewBox="0 0 95 95" fill="none" xmlns="http://www.w3.org/2000/svg">
<path d="M85.6467 16.8051C84.8597 16.1139 83.8307 15.7632 82.7854 15.8299C81.7402 15.8967 80.7641 16.3754 80.0714 17.161L72.6771 25.6624L70.186 22.855C69.4886 22.0684 68.5074 21.5912 67.4581 21.5281C66.4088 21.4651 65.3774 21.8215 64.5909 22.5189C63.8044 23.2163 63.3271 24.1975 63.2641 25.2468C63.201 26.2961 63.5574 27.3275 64.2548 28.114L69.7511 34.2824C70.1252 34.697 70.5829 35.0277 71.0941 35.2526C71.6052 35.4775 72.1582 35.5916 72.7167 35.5873C73.2714 35.581 73.8186 35.4581 74.3227 35.2265C74.8269 34.9948 75.2766 34.6597 75.6427 34.2429L85.963 22.3805C86.6591 21.5986 87.0166 20.5726 86.9573 19.5274C86.898 18.4823 86.4267 17.5033 85.6467 16.8051V16.8051Z" fill="#FDAEFF"/>
<path d="M39.5414 43.4956C42.6696 43.4956 45.7276 42.5679 48.3286 40.83C50.9296 39.092 52.9569 36.6218 54.154 33.7317C55.3511 30.8416 55.6644 27.6615 55.0541 24.5933C54.4438 21.5252 52.9374 18.707 50.7254 16.495C48.5134 14.283 45.6952 12.7766 42.6271 12.1663C39.559 11.5561 36.3788 11.8693 33.4887 13.0664C30.5986 14.2635 28.1284 16.2908 26.3904 18.8918C24.6525 21.4928 23.7249 24.5508 23.7249 27.679C23.7249 31.8738 25.3912 35.8968 28.3574 38.863C31.3236 41.8292 35.3466 43.4956 39.5414 43.4956ZM39.5414 19.7707C41.1055 19.7707 42.6345 20.2345 43.935 21.1035C45.2355 21.9725 46.2492 23.2076 46.8477 24.6526C47.4463 26.0977 47.6029 27.6878 47.2977 29.2218C46.9926 30.7559 46.2394 32.165 45.1334 33.271C44.0274 34.377 42.6183 35.1302 41.0842 35.4353C39.5502 35.7405 37.9601 35.5839 36.515 34.9853C35.07 34.3867 33.8349 33.3731 32.9659 32.0726C32.0969 30.7721 31.6331 29.2431 31.6331 27.679C31.6331 25.5816 32.4663 23.5701 33.9494 22.087C35.4325 20.6039 37.444 19.7707 39.5414 19.7707Z" fill="#FDAEFF"/>
<path d="M39.5414 51.4038C32.2005 51.4038 25.1602 54.32 19.9694 59.5108C14.7786 64.7016 11.8624 71.7419 11.8624 79.0828C11.8624 80.1315 12.279 81.1373 13.0206 81.8788C13.7621 82.6203 14.7679 83.0369 15.8166 83.0369C16.8653 83.0369 17.871 82.6203 18.6126 81.8788C19.3541 81.1373 19.7707 80.1315 19.7707 79.0828C19.7707 73.8393 21.8537 68.8105 25.5614 65.1028C29.2691 61.3951 34.2979 59.3121 39.5414 59.3121C44.7849 59.3121 49.8137 61.3951 53.5214 65.1028C57.2291 68.8105 59.3121 73.8393 59.3121 79.0828C59.3121 80.1315 59.7287 81.1373 60.4703 81.8788C61.2118 82.6203 62.2176 83.0369 63.2663 83.0369C64.315 83.0369 65.3207 82.6203 66.0623 81.8788C66.8038 81.1373 67.2204 80.1315 67.2204 79.0828C67.2204 71.7419 64.3042 64.7016 59.1134 59.5108C53.9226 54.32 46.8823 51.4038 39.5414 51.4038Z" fill="#FDAEFF"/>
</svg>
