<svg width="49" height="49" viewBox="0 0 49 49" fill="none" xmlns="http://www.w3.org/2000/svg">
<path d="M30.5195 24.8932L47.681 7.77166C48.4325 7.02013 48.8547 6.00085 48.8547 4.93803C48.8547 3.87521 48.4325 2.85592 47.681 2.10439C46.9295 1.35287 45.9102 0.930664 44.8474 0.930664C43.7845 0.930664 42.7653 1.35287 42.0137 2.10439L24.8922 19.2658L7.77066 2.10439C7.01913 1.35287 5.99985 0.930664 4.93703 0.930664C3.87421 0.930664 2.85492 1.35287 2.10339 2.10439C1.35187 2.85592 0.929663 3.87521 0.929663 4.93803C0.929663 6.00085 1.35187 7.02013 2.10339 7.77166L19.2648 24.8932L2.10339 42.0147C1.72932 42.3857 1.43241 42.8272 1.22979 43.3135C1.02717 43.7998 0.922852 44.3215 0.922852 44.8484C0.922852 45.3752 1.02717 45.8969 1.22979 46.3832C1.43241 46.8696 1.72932 47.311 2.10339 47.682C2.47441 48.0561 2.91582 48.353 3.40217 48.5556C3.88851 48.7582 4.41016 48.8625 4.93703 48.8625C5.46389 48.8625 5.98554 48.7582 6.47189 48.5556C6.95823 48.353 7.39964 48.0561 7.77066 47.682L24.8922 30.5205L42.0137 47.682C42.3847 48.0561 42.8262 48.353 43.3125 48.5556C43.7988 48.7582 44.3205 48.8625 44.8474 48.8625C45.3742 48.8625 45.8959 48.7582 46.3822 48.5556C46.8686 48.353 47.31 48.0561 47.681 47.682C48.0551 47.311 48.352 46.8696 48.5546 46.3832C48.7572 45.8969 48.8615 45.3752 48.8615 44.8484C48.8615 44.3215 48.7572 43.7998 48.5546 43.3135C48.352 42.8272 48.0551 42.3857 47.681 42.0147L30.5195 24.8932Z" fill="#E25073"/>
</svg>
