<svg width="65" height="49" viewBox="0 0 65 49" fill="none" xmlns="http://www.w3.org/2000/svg">
<path d="M24.3519 48.8384C23.8047 48.8367 23.2636 48.7224 22.7624 48.5027C22.2612 48.283 21.8106 47.9625 21.4384 47.5613L2.04202 26.9277C1.31696 26.155 0.928545 25.1259 0.962226 24.0668C0.995907 23.0077 1.44892 22.0054 2.22162 21.2803C2.99432 20.5553 4.0234 20.1669 5.08247 20.2005C6.14155 20.2342 7.14387 20.6872 7.86893 21.4599L24.312 38.9806L57.8766 2.26307C58.2172 1.83891 58.6409 1.48886 59.1218 1.23443C59.6026 0.979998 60.1304 0.826548 60.6727 0.783508C61.2149 0.740467 61.7603 0.808744 62.2752 0.984145C62.7902 1.15955 63.2638 1.43837 63.6671 1.80348C64.0704 2.1686 64.3947 2.6123 64.6203 3.10734C64.8458 3.60238 64.9678 4.1383 64.9787 4.68219C64.9895 5.22607 64.8891 5.76644 64.6836 6.27011C64.478 6.77377 64.1716 7.2301 63.7833 7.61105L27.3053 47.5214C26.9367 47.9299 26.4876 48.2578 25.9862 48.4844C25.4848 48.7111 24.942 48.8316 24.3918 48.8384H24.3519Z" fill="#E25073"/>
</svg>
