<svg width="66" height="66" viewBox="0 0 66 66" fill="none" xmlns="http://www.w3.org/2000/svg">
<path d="M54.2936 59.723H49.7601C48.3201 59.723 46.9391 59.1509 45.9209 58.1327C44.9027 57.1145 44.3307 55.7336 44.3307 54.2936V39.7158C44.355 39.1441 44.1822 38.5813 43.8412 38.1218C43.5002 37.6622 43.0118 37.3337 42.4576 37.1911C42.1352 37.142 41.806 37.1627 41.4922 37.2517C41.1784 37.3406 40.8874 37.4959 40.6388 37.7069C40.3828 37.9241 40.1774 38.1945 40.0367 38.4993C39.8961 38.804 39.8236 39.1358 39.8244 39.4715V54.2936C39.8244 55.7336 39.2523 57.1145 38.2341 58.1327C37.2159 59.1509 35.835 59.723 34.395 59.723H29.8615C28.4215 59.723 27.0406 59.1509 26.0224 58.1327C25.0041 57.1145 24.4321 55.7336 24.4321 54.2936V39.4715C24.4321 37.1542 24.8885 34.8597 25.7753 32.7189C26.6621 30.578 27.9618 28.6328 29.6003 26.9943C31.2389 25.3557 33.1841 24.056 35.3249 23.1692C37.4658 22.2825 39.7603 21.826 42.0775 21.826C44.3948 21.826 46.6893 22.2825 48.8301 23.1692C50.971 24.056 52.9162 25.3557 54.5547 26.9943C56.1933 28.6328 57.493 30.578 58.3798 32.7189C59.2665 34.8597 59.723 37.1542 59.723 39.4715V54.2936C59.723 55.7336 59.1509 57.1145 58.1327 58.1327C57.1145 59.1509 55.7336 59.723 54.2936 59.723ZM42.0775 31.7346C42.5024 31.7078 42.9286 31.7078 43.3534 31.7346C45.176 32.0852 46.8169 33.0663 47.9884 34.5059C49.1599 35.9454 49.7871 37.7514 49.7601 39.6072V54.2936H54.2936V39.4715C54.2936 36.2316 53.0065 33.1244 50.7156 30.8334C48.4246 28.5425 45.3174 27.2554 42.0775 27.2554C38.8376 27.2554 35.7304 28.5425 33.4395 30.8334C31.1485 33.1244 29.8615 36.2316 29.8615 39.4715V54.2936H34.395V39.4715C34.3949 37.4289 35.2026 35.4692 36.6418 34.0198C38.0811 32.5704 40.035 31.749 42.0775 31.7346V31.7346Z" fill="#FDFEFF"/>
<path d="M16.2882 59.7229H10.8588C9.41885 59.7229 8.03787 59.1509 7.01967 58.1327C6.00146 57.1145 5.42944 55.7335 5.42944 54.2936V27.1468C5.42944 25.7068 6.00146 24.3259 7.01967 23.3077C8.03787 22.2895 9.41885 21.7174 10.8588 21.7174H16.2882C17.7281 21.7174 19.1091 22.2895 20.1273 23.3077C21.1455 24.3259 21.7175 25.7068 21.7175 27.1468V54.2936C21.7175 55.7335 21.1455 57.1145 20.1273 58.1327C19.1091 59.1509 17.7281 59.7229 16.2882 59.7229ZM10.8588 27.1468V54.2936H16.2882V27.1468H10.8588Z" fill="#FDFEFF"/>
<path d="M13.5735 19.0028C11.9627 19.0028 10.3882 18.5251 9.0489 17.6303C7.70962 16.7354 6.66578 15.4634 6.04937 13.9753C5.43297 12.4872 5.27169 10.8497 5.58593 9.26991C5.90017 7.69012 6.67582 6.23899 7.81478 5.10003C8.95374 3.96106 10.4049 3.18542 11.9847 2.87118C13.5645 2.55694 15.2019 2.71822 16.6901 3.33462C18.1782 3.95103 19.4501 4.99487 20.345 6.33415C21.2399 7.67343 21.7175 9.24799 21.7175 10.8587C21.7175 13.0187 20.8595 15.0901 19.3322 16.6174C17.8049 18.1447 15.7334 19.0028 13.5735 19.0028V19.0028ZM13.5735 8.14405C13.0366 8.14405 12.5117 8.30327 12.0653 8.60156C11.6189 8.89985 11.2709 9.32383 11.0654 9.81987C10.86 10.3159 10.8062 10.8617 10.911 11.3883C11.0157 11.9149 11.2743 12.3986 11.6539 12.7783C12.0336 13.158 12.5173 13.4165 13.0439 13.5212C13.5705 13.626 14.1163 13.5722 14.6123 13.3668C15.1084 13.1613 15.5324 12.8134 15.8307 12.3669C16.1289 11.9205 16.2882 11.3956 16.2882 10.8587C16.2882 10.1388 16.0022 9.44827 15.4931 8.93916C14.984 8.43006 14.2935 8.14405 13.5735 8.14405V8.14405Z" fill="#FDFEFF"/>
</svg>
